<svg width="560" height="284" xmlns="http://www.w3.org/2000/svg" xmlns:xlink="http://www.w3.org/1999/xlink"><defs><path d="M201.307 159.611s127.363-8.815 119.613-43.396c-5.22-23.298-37.903-15.616-35.1 4.47 2.619 18.758 39.844 23.726 56.138 5.903 16.294-17.824 21.403-21.306 21.403-21.306" id="b"/><filter x="-4.6%" y="-9.5%" width="109.3%" height="126%" filterUnits="objectBoundingBox" id="a"><feMorphology radius=".5" operator="dilate" in="SourceAlpha" result="shadowSpreadOuter1"/><feOffset dy="2" in="shadowSpreadOuter1" result="shadowOffsetOuter1"/><feMorphology radius="1" in="SourceAlpha" result="shadowInner"/><feOffset dy="2" in="shadowInner" result="shadowInner"/><feComposite in="shadowOffsetOuter1" in2="shadowInner" operator="out" result="shadowOffsetOuter1"/><feGaussianBlur stdDeviation="2" in="shadowOffsetOuter1" result="shadowBlurOuter1"/><feColorMatrix values="0 0 0 0 0 0 0 0 0 0 0 0 0 0 0 0 0 0 0.08 0" in="shadowBlurOuter1"/></filter><path d="M135.015 135.998s-71.652-1.977-96.455-16.648C23.375 110.368.164 99.577.164 99.577" id="d"/><filter x="-5.6%" y="-15.1%" width="111.1%" height="141.2%" filterUnits="objectBoundingBox" id="c"><feMorphology radius=".5" operator="dilate" in="SourceAlpha" result="shadowSpreadOuter1"/><feOffset dy="2" in="shadowSpreadOuter1" result="shadowOffsetOuter1"/><feMorphology radius="1" in="SourceAlpha" result="shadowInner"/><feOffset dy="2" in="shadowInner" result="shadowInner"/><feComposite in="shadowOffsetOuter1" in2="shadowInner" operator="out" result="shadowOffsetOuter1"/><feGaussianBlur stdDeviation="2" in="shadowOffsetOuter1" result="shadowBlurOuter1"/><feColorMatrix values="0 0 0 0 0 0 0 0 0 0 0 0 0 0 0 0 0 0 0.08 0" in="shadowBlurOuter1"/></filter><path d="M231.29 104.911s10.76-7.243 19.477-18.528c5.181-6.708 10.449-27.198 20.618-36.05 27.021-23.518 19.756-16.726 19.756-16.726" id="f"/><filter x="-12.3%" y="-7.6%" width="124.7%" height="120.8%" filterUnits="objectBoundingBox" id="e"><feMorphology radius=".5" operator="dilate" in="SourceAlpha" result="shadowSpreadOuter1"/><feOffset dy="2" in="shadowSpreadOuter1" result="shadowOffsetOuter1"/><feMorphology radius="1" in="SourceAlpha" result="shadowInner"/><feOffset dy="2" in="shadowInner" result="shadowInner"/><feComposite in="shadowOffsetOuter1" in2="shadowInner" operator="out" result="shadowOffsetOuter1"/><feGaussianBlur stdDeviation="2" in="shadowOffsetOuter1" result="shadowBlurOuter1"/><feColorMatrix values="0 0 0 0 0 0 0 0 0 0 0 0 0 0 0 0 0 0 0.08 0" in="shadowBlurOuter1"/></filter><path d="M138.256 124.917s-27.167-10.514-45.632-49.479C74.159 36.473 59.274 30.7 59.274 30.7" id="h"/><filter x="-9.5%" y="-5.8%" width="119%" height="115.9%" filterUnits="objectBoundingBox" id="g"><feMorphology radius=".5" operator="dilate" in="SourceAlpha" result="shadowSpreadOuter1"/><feOffset dy="2" in="shadowSpreadOuter1" result="shadowOffsetOuter1"/><feMorphology radius="1" in="SourceAlpha" result="shadowInner"/><feOffset dy="2" in="shadowInner" result="shadowInner"/><feComposite in="shadowOffsetOuter1" in2="shadowInner" operator="out" result="shadowOffsetOuter1"/><feGaussianBlur stdDeviation="2" in="shadowOffsetOuter1" result="shadowBlurOuter1"/><feColorMatrix values="0 0 0 0 0 0 0 0 0 0 0 0 0 0 0 0 0 0 0.08 0" in="shadowBlurOuter1"/></filter><path d="M229.187 102.021s-5.744-9.446-10.667-27.593c-2.212-8.152-1.438-31.264-7.118-38.962-20.421-27.679-26.105-29.883-26.105-29.883" id="j"/><filter x="-17.1%" y="-5.7%" width="134.2%" height="115.6%" filterUnits="objectBoundingBox" id="i"><feMorphology radius=".5" operator="dilate" in="SourceAlpha" result="shadowSpreadOuter1"/><feOffset dy="2" in="shadowSpreadOuter1" result="shadowOffsetOuter1"/><feMorphology radius="1" in="SourceAlpha" result="shadowInner"/><feOffset dy="2" in="shadowInner" result="shadowInner"/><feComposite in="shadowOffsetOuter1" in2="shadowInner" operator="out" result="shadowOffsetOuter1"/><feGaussianBlur stdDeviation="2" in="shadowOffsetOuter1" result="shadowBlurOuter1"/><feColorMatrix values="0 0 0 0 0 0 0 0 0 0 0 0 0 0 0 0 0 0 0.08 0" in="shadowBlurOuter1"/></filter><path d="M157.738 108.034s-1.133 20.855 2.342-15.96c1.628-17.251-5.726-29.766-9.647-41.909-4.447-13.77-5.65-27.24-5.65-49.87" id="l"/><filter x="-48.3%" y="-4.8%" width="196.6%" height="113.2%" filterUnits="objectBoundingBox" id="k"><feMorphology radius=".5" operator="dilate" in="SourceAlpha" result="shadowSpreadOuter1"/><feOffset dy="2" in="shadowSpreadOuter1" result="shadowOffsetOuter1"/><feMorphology radius="1" in="SourceAlpha" result="shadowInner"/><feOffset dy="2" in="shadowInner" result="shadowInner"/><feComposite in="shadowOffsetOuter1" in2="shadowInner" operator="out" result="shadowOffsetOuter1"/><feGaussianBlur stdDeviation="2" in="shadowOffsetOuter1" result="shadowBlurOuter1"/><feColorMatrix values="0 0 0 0 0 0 0 0 0 0 0 0 0 0 0 0 0 0 0.08 0" in="shadowBlurOuter1"/></filter><rect id="n" x=".224" y=".214" width="56.369" height="75.362" rx="3"/><filter x="-54.1%" y="-21.9%" width="208.2%" height="180.9%" filterUnits="objectBoundingBox" id="m"><feOffset dy="12" in="SourceAlpha" result="shadowOffsetOuter1"/><feGaussianBlur stdDeviation="7.5" in="shadowOffsetOuter1" result="shadowBlurOuter1"/><feComposite in="shadowBlurOuter1" in2="SourceAlpha" operator="out" result="shadowBlurOuter1"/><feColorMatrix values="0 0 0 0 0 0 0 0 0 0 0 0 0 0 0 0 0 0 0.06 0" in="shadowBlurOuter1" result="shadowMatrixOuter1"/><feOffset dy="2" in="SourceAlpha" result="shadowOffsetOuter2"/><feGaussianBlur stdDeviation="1" in="shadowOffsetOuter2" result="shadowBlurOuter2"/><feComposite in="shadowBlurOuter2" in2="SourceAlpha" operator="out" result="shadowBlurOuter2"/><feColorMatrix values="0 0 0 0 0 0 0 0 0 0 0 0 0 0 0 0 0 0 0.08 0" in="shadowBlurOuter2" result="shadowMatrixOuter2"/><feMerge><feMergeNode in="shadowMatrixOuter1"/><feMergeNode in="shadowMatrixOuter2"/></feMerge></filter><rect id="p" x="219.993" y="172.169" width="127.442" height="75.046" rx="3"/><filter x="-23.9%" y="-22%" width="147.9%" height="181.3%" filterUnits="objectBoundingBox" id="o"><feOffset dy="12" in="SourceAlpha" result="shadowOffsetOuter1"/><feGaussianBlur stdDeviation="7.5" in="shadowOffsetOuter1" result="shadowBlurOuter1"/><feComposite in="shadowBlurOuter1" in2="SourceAlpha" operator="out" result="shadowBlurOuter1"/><feColorMatrix values="0 0 0 0 0 0 0 0 0 0 0 0 0 0 0 0 0 0 0.08 0" in="shadowBlurOuter1" result="shadowMatrixOuter1"/><feOffset dy="2" in="SourceAlpha" result="shadowOffsetOuter2"/><feGaussianBlur stdDeviation="1" in="shadowOffsetOuter2" result="shadowBlurOuter2"/><feComposite in="shadowBlurOuter2" in2="SourceAlpha" operator="out" result="shadowBlurOuter2"/><feColorMatrix values="0 0 0 0 0 0 0 0 0 0 0 0 0 0 0 0 0 0 0.06 0" in="shadowBlurOuter2" result="shadowMatrixOuter2"/><feMerge><feMergeNode in="shadowMatrixOuter1"/><feMergeNode in="shadowMatrixOuter2"/></feMerge></filter><rect id="r" x=".182" y="68.749" width="153.175" height="9.803" rx="3"/><filter x="-19.9%" y="-168.3%" width="139.8%" height="722.2%" filterUnits="objectBoundingBox" id="q"><feOffset dy="12" in="SourceAlpha" result="shadowOffsetOuter1"/><feGaussianBlur stdDeviation="7.5" in="shadowOffsetOuter1" result="shadowBlurOuter1"/><feComposite in="shadowBlurOuter1" in2="SourceAlpha" operator="out" result="shadowBlurOuter1"/><feColorMatrix values="0 0 0 0 0 0 0 0 0 0 0 0 0 0 0 0 0 0 0.06 0" in="shadowBlurOuter1" result="shadowMatrixOuter1"/><feOffset dy="2" in="SourceAlpha" result="shadowOffsetOuter2"/><feGaussianBlur stdDeviation="1" in="shadowOffsetOuter2" result="shadowBlurOuter2"/><feComposite in="shadowBlurOuter2" in2="SourceAlpha" operator="out" result="shadowBlurOuter2"/><feColorMatrix values="0 0 0 0 0 0 0 0 0 0 0 0 0 0 0 0 0 0 0.08 0" in="shadowBlurOuter2" result="shadowMatrixOuter2"/><feMerge><feMergeNode in="shadowMatrixOuter1"/><feMergeNode in="shadowMatrixOuter2"/></feMerge></filter><rect id="t" x=".25" y=".237" width="29.41" height="51.467" rx="3"/><filter x="-103.7%" y="-32.1%" width="307.4%" height="218.5%" filterUnits="objectBoundingBox" id="s"><feOffset dy="12" in="SourceAlpha" result="shadowOffsetOuter1"/><feGaussianBlur stdDeviation="7.5" in="shadowOffsetOuter1" result="shadowBlurOuter1"/><feComposite in="shadowBlurOuter1" in2="SourceAlpha" operator="out" result="shadowBlurOuter1"/><feColorMatrix values="0 0 0 0 0 0 0 0 0 0 0 0 0 0 0 0 0 0 0.06 0" in="shadowBlurOuter1" result="shadowMatrixOuter1"/><feOffset dy="2" in="SourceAlpha" result="shadowOffsetOuter2"/><feGaussianBlur stdDeviation="1" in="shadowOffsetOuter2" result="shadowBlurOuter2"/><feComposite in="shadowBlurOuter2" in2="SourceAlpha" operator="out" result="shadowBlurOuter2"/><feColorMatrix values="0 0 0 0 0 0 0 0 0 0 0 0 0 0 0 0 0 0 0.08 0" in="shadowBlurOuter2" result="shadowMatrixOuter2"/><feMerge><feMergeNode in="shadowMatrixOuter1"/><feMergeNode in="shadowMatrixOuter2"/></feMerge></filter></defs><g transform="translate(0 -2)" fill="none" fill-rule="evenodd"><path d="M508.558 161.561l.618-7.054-11.978-4.888 33.02.893-20.966-.792-3.524-6.26s26.713 3.265 53.721 9.61c-27.86 3.398-50.89 8.491-50.89 8.491z" stroke="#3D3D3D" fill="#FFF" stroke-linecap="round" stroke-linejoin="round"/><path d="M509.84 154.247s20.515-1.844 46.368-1.558c-28.065 4.44-46.946 8.172-46.946 8.172l.579-6.614zM508.51 146.966l21.861 2.95-20.823-.783z" fill="#3D3D3D" opacity=".15"/><path d="M430.913 65.218l6.916 5.105 1.613 7.878 2.343-5.136.51.558.425.462a266.216 266.216 0 0 0 4.667 4.924l.57.582c.779.79 1.496 1.5 2.14 2.119 1.42-2.103 3.154-4.427 5.16-6.939a192.561 192.561 0 0 1 3.586-4.352c2.848-3.36 5.9-6.765 8.95-10.04a300.918 300.918 0 0 1 3.005-3.18 602.577 602.577 0 0 0-11.695 2.17c-1.46.283-2.957.578-4.484.883a1309.567 1309.567 0 0 0-21.85 4.56 899.668 899.668 0 0 0-1.856.406z" stroke="#3D3D3D" fill="#FFF"/><path d="M438.276 69.326l4.17 2.889 13.663-8.024-17.833 5.135z" stroke="#3D3D3D"/><path fill="#E0E0E0" d="M441.913 73.991l1.804 1.825-3.703 2.373z"/><path fill="#3D3D3D" d="M439.277 78.651l4.626-3 .558.614-5.184 3.518z"/><path d="M119.422 66.355l-6.916 5.105-1.613 7.878-2.343-5.136-.51.558-.425.462a266.21 266.21 0 0 1-4.667 4.924l-.57.582c-.779.79-1.496 1.5-2.14 2.119-1.42-2.103-3.154-4.427-5.16-6.939a192.562 192.562 0 0 0-3.586-4.352c-2.848-3.36-5.9-6.765-8.95-10.04a300.918 300.918 0 0 0-3.005-3.18c3.476.605 7.4 1.334 11.695 2.17 1.46.283 2.957.578 4.484.883a1309.568 1309.568 0 0 1 21.85 4.56 899.668 899.668 0 0 1 1.856.406z" stroke="#323B43" fill="#FFF"/><path d="M112.059 70.463l-4.17 2.89-13.663-8.025 17.833 5.135z" stroke="#323B43"/><path fill="#E0E0E0" d="M111.803 71.116L99.736 67.72l8.945 5.287 1.969 4.01zM108.422 75.128l-1.804 1.825 3.703 2.373z"/><path fill="#313B43" d="M111.058 79.788l-4.626-3-.558.614 5.184 3.518z"/><path d="M50.289 159.375v-7.082l12.358-3.825-32.973-1.988 20.956 1.038 4.056-5.93s-26.895.926-54.354 4.892c27.459 5.813 49.957 12.895 49.957 12.895z" stroke="#3D3D3D" fill="#FFF" stroke-linecap="round" stroke-linejoin="round"/><path d="M49.649 151.976s-19.895-3.398-45.675-5.367c27.78 6.378 45.675 12.007 45.675 12.007v-6.64zM51.61 144.84l-22.036 1.033 20.813 1.034z" fill="#3D3D3D" opacity=".15"/><g stroke="#3D3D3D"><path d="M220.851 4.973l-9.035 25.568 10.968-3.084 5.04-.964 11.303-.826L220.85 4.973z" fill="#FFF"/><path d="M222.838 14.386l.274 13.456 3.294 3.938 1.353-4.801-4.921-12.593z" fill="#E0E0E0"/></g><g stroke="#3D3D3D"><path d="M329.175 3.686L311.94 24.62l11.362.854 5.066.818 10.903 3.09-10.096-25.697z" fill="#FFF"/><path d="M327.822 13.21l-4.344 12.738 1.748 4.828 2.913-4.05-.317-13.516z" fill="#E0E0E0"/></g><g transform="translate(126.213 76.183)"><circle fill="#55ACEE" cx="13.574" cy="13.574" r="13.574"/><path d="M21.33 10.032c-.5.221-1.036.37-1.6.438a2.793 2.793 0 0 0 1.225-1.54c-.538.319-1.134.55-1.768.675a2.785 2.785 0 0 0-4.745 2.54 7.906 7.906 0 0 1-5.74-2.91 2.783 2.783 0 0 0 .862 3.718 2.773 2.773 0 0 1-1.262-.348v.035c0 1.35.96 2.475 2.234 2.73a2.788 2.788 0 0 1-1.258.049 2.788 2.788 0 0 0 2.601 1.934 5.587 5.587 0 0 1-4.123 1.153 7.882 7.882 0 0 0 4.27 1.251c5.121 0 7.923-4.243 7.923-7.923 0-.121-.003-.241-.009-.36a5.656 5.656 0 0 0 1.39-1.442z" fill="#FFF"/></g><g transform="translate(68.792 148.386)"><circle fill="#BE000F" cx="13.645" cy="13.645" r="13.645"/><path d="M14.432 7.797c-3.763 0-5.66 2.698-5.66 4.948 0 1.362.515 2.574 1.621 3.025.182.074.344.003.397-.198.037-.139.123-.49.162-.636.053-.198.032-.268-.114-.441-.32-.376-.523-.863-.523-1.553 0-2.002 1.497-3.794 3.9-3.794 2.126 0 3.295 1.3 3.295 3.036 0 2.283-1.01 4.21-2.511 4.21-.829 0-1.449-.685-1.25-1.525.238-1.003.7-2.086.7-2.81 0-.649-.349-1.19-1.07-1.19-.846 0-1.526.877-1.526 2.05 0 .748.252 1.254.252 1.254l-1.019 4.316c-.302 1.28-.045 2.85-.023 3.01.012.093.133.116.188.045.078-.102 1.087-1.348 1.43-2.592.097-.353.557-2.177.557-2.177.275.525 1.08.987 1.935.987 2.546 0 4.273-2.321 4.273-5.428 0-2.35-1.99-4.537-5.014-4.537z" fill="#FFF"/></g><g stroke-dasharray="1,3" stroke-linecap="round" stroke-linejoin="round"><g transform="translate(99 73)"><use fill="#000" filter="url(#a)" xlink:href="#b"/><use stroke="#3D3D3D" xlink:href="#b"/></g><g transform="translate(99 73)"><use fill="#000" filter="url(#c)" xlink:href="#d"/><use stroke="#3D3D3D" xlink:href="#d"/></g><g transform="translate(99 73)"><use fill="#000" filter="url(#e)" xlink:href="#f"/><use stroke="#3D3D3D" xlink:href="#f"/></g><g transform="translate(99 73)"><use fill="#000" filter="url(#g)" xlink:href="#h"/><use stroke="#3D3D3D" xlink:href="#h"/></g><g transform="rotate(45 168.623 209.806)"><use fill="#000" filter="url(#i)" xlink:href="#j"/><use stroke="#3D3D3D" xlink:href="#j"/></g><g transform="rotate(-15 479.292 -282.383)"><use fill="#000" filter="url(#k)" xlink:href="#l"/><use stroke="#3D3D3D" xlink:href="#l"/></g></g><g transform="translate(396.832 78.457)"><circle fill="#FFF" cx="13.645" cy="13.645" r="13.645"/><path d="M0 13.645C0 6.109 6.107 0 13.645 0c7.535 0 13.644 6.107 13.644 13.645 0 7.535-6.107 13.644-13.644 13.644C6.109 27.29 0 21.182 0 13.645zm11.164-.61v1.462h2.462c-.1.628-.744 1.84-2.462 1.84a2.695 2.695 0 0 1-2.692-2.692 2.695 2.695 0 0 1 2.692-2.693c.843 0 1.408.354 1.73.658l1.179-1.115c-.757-.694-1.737-1.114-2.91-1.114-2.4 0-4.34 1.906-4.34 4.264 0 2.357 1.94 4.264 4.34 4.264 2.506 0 4.169-1.73 4.169-4.167 0-.28-.031-.493-.069-.706h-4.1zm9.303 0h-1.24v-1.218h-1.24v1.219h-1.241v1.218h1.24v1.218h1.24v-1.218h1.241" fill="#DD4B39"/></g><g transform="translate(310.985 44.345)"><circle fill="#E53C5F" cx="13.645" cy="13.645" r="13.645"/><path d="M13.995 7.111c2.241 0 2.507.009 3.393.05 2.276.103 3.339 1.183 3.442 3.441.04.885.048 1.151.048 3.393 0 2.243-.008 2.508-.048 3.393-.104 2.257-1.164 3.339-3.442 3.442-.886.04-1.15.05-3.393.05-2.242 0-2.508-.01-3.393-.05-2.282-.104-3.339-1.189-3.442-3.442-.041-.886-.05-1.15-.05-3.393 0-2.242.01-2.508.05-3.393.104-2.258 1.164-3.339 3.442-3.442.885-.04 1.15-.049 3.393-.049zm0-1.513c-2.28 0-2.566.01-3.462.05-3.05.14-4.744 1.832-4.884 4.884-.041.897-.051 1.182-.051 3.463 0 2.28.01 2.566.05 3.462.14 3.05 1.832 4.744 4.884 4.884.897.04 1.182.05 3.463.05 2.28 0 2.566-.01 3.462-.05 3.046-.14 4.745-1.832 4.883-4.884.041-.896.051-1.182.051-3.462 0-2.28-.01-2.566-.05-3.462-.137-3.047-1.831-4.744-4.884-4.884-.896-.041-1.182-.051-3.462-.051zm0 4.085a4.312 4.312 0 1 0 0 8.624 4.312 4.312 0 0 0 0-8.624zm0 7.11a2.799 2.799 0 1 1-.001-5.597 2.799 2.799 0 0 1 0 5.597zm4.482-8.288a1.008 1.008 0 1 0 0 2.016 1.008 1.008 0 0 0 0-2.016z" fill="#FFF" fill-rule="nonzero"/></g><g transform="translate(462.782 148.386)"><circle fill="#007BB6" cx="13.645" cy="13.645" r="13.645"/><path d="M10.894 19.864H7.97v-8.8h2.924v8.8zM9.432 9.863h-.02c-.98 0-1.615-.676-1.615-1.52 0-.864.654-1.52 1.655-1.52 1 0 1.616.656 1.635 1.52 0 .844-.635 1.52-1.655 1.52zm12.01 10.001h-2.926v-4.709c0-1.182-.423-1.99-1.48-1.99-.809 0-1.29.545-1.502 1.07-.077.189-.096.451-.096.714v4.915h-2.925s.039-7.975 0-8.8h2.925v1.246c.389-.6 1.084-1.453 2.637-1.453 1.924 0 3.367 1.258 3.367 3.96v5.047z" fill="#FFF"/></g><g transform="translate(215.472 44.345)"><circle fill="#3B5998" cx="13.645" cy="13.645" r="13.645"/><path d="M15.16 12.618h2.303l-.302 2.314h-1.998v6.003H12.74v-5.996h-2.02v-2.335h2.011v-1.7s.018-.654.16-1.17c.134-.484.385-.824.61-1.057.21-.22.593-.528.99-.67.601-.213 1.221-.203 1.221-.203s.615-.015.922 0c.303.014.91.087.91.087v2.084h-1.236s-1.132-.107-1.132.918c0 1.025-.015 1.725-.015 1.725z" fill="#FFF"/></g><g transform="translate(144.406 176.244)"><g fill-rule="nonzero"><use fill="#000" filter="url(#m)" xlink:href="#n"/><rect stroke="#B8B8B8" stroke-width=".5" stroke-linejoin="square" fill="#FFF" fill-rule="evenodd" x=".474" y=".464" width="55.869" height="74.862" rx="3"/></g><circle fill="#F5F5F5" cx="14.929" cy="54.745" r="1.225"/><rect stroke="#B8B8B8" stroke-width=".5" fill="#F5F5F5" x="4.15" y="4.141" width="48.516" height="63.834" rx="1.5"/><g fill="#3D3D3D"><path d="M32.903 38.313l-1.077-.514a.443.443 0 0 0-.336 0l-3.083 1.471a.443.443 0 0 1-.336 0L24.99 37.8a.443.443 0 0 0-.336 0l-1.077.513c-.092.044-.092.116 0 .16l4.495 2.146a.443.443 0 0 0 .336 0l4.496-2.146c.092-.044.092-.116 0-.16"/><path d="M32.903 35.67l-1.077-.513a.443.443 0 0 0-.336 0l-3.083 1.471a.443.443 0 0 1-.336 0l-3.082-1.471a.443.443 0 0 0-.336 0l-1.077.514c-.092.044-.092.116 0 .16l4.495 2.145a.443.443 0 0 0 .336 0l4.496-2.145c.092-.044.092-.116 0-.16"/><path d="M23.576 33.188l4.495 2.146a.443.443 0 0 0 .336 0l4.496-2.146c.092-.044.092-.116 0-.16l-4.496-2.145a.443.443 0 0 0-.336 0l-4.495 2.145c-.092.044-.092.116 0 .16"/></g><circle fill="#B8B8B8" cx="28.408" cy="71.288" r="1.225"/></g><g fill-rule="nonzero"><use fill="#000" filter="url(#o)" xlink:href="#p"/><rect stroke="#B8B8B8" stroke-width=".5" stroke-linejoin="square" fill="#FFF" fill-rule="evenodd" x="220.243" y="172.419" width="126.942" height="74.546" rx="3"/></g><circle fill="#F5F5F5" cx="236.536" cy="240.179" r="1.225"/><circle fill="#F5F5F5" cx="250.015" cy="256.722" r="1.225"/><g transform="translate(206.944 175.107)"><rect stroke="#B8B8B8" stroke-width=".5" fill="#F5F5F5" x="20.038" y="4.052" width="113.463" height="72.411" rx="1.5"/><g fill="#3D3D3D"><path d="M83.51 43.182l-1.615-.771a.664.664 0 0 0-.503 0l-4.624 2.207a.664.664 0 0 1-.504 0l-4.624-2.207a.664.664 0 0 0-.504 0l-1.615.77c-.139.067-.139.175 0 .241l6.743 3.218a.664.664 0 0 0 .504 0l6.743-3.218c.138-.066.138-.174 0-.24"/><path d="M83.51 39.218l-1.615-.77a.664.664 0 0 0-.503 0l-4.624 2.206a.664.664 0 0 1-.504 0l-4.624-2.207a.664.664 0 0 0-.504 0l-1.615.771c-.139.066-.139.174 0 .24l6.743 3.219a.664.664 0 0 0 .504 0l6.743-3.219c.138-.066.138-.174 0-.24"/><path d="M69.52 35.495l6.744 3.218a.664.664 0 0 0 .504 0l6.743-3.218c.138-.066.138-.174 0-.24l-6.743-3.219a.664.664 0 0 0-.504 0l-6.743 3.218c-.139.067-.139.175 0 .24"/></g><g fill-rule="nonzero"><use fill="#000" filter="url(#q)" xlink:href="#r"/><rect stroke="#B8B8B8" stroke-width=".5" stroke-linejoin="square" fill="#FFF" fill-rule="evenodd" x=".432" y="68.999" width="152.675" height="9.303" rx="3"/></g><circle fill="#B8B8B8" cx="76.769" cy="1.351" r="1.225"/></g><g transform="translate(302.457 208.081)"><g fill-rule="nonzero"><use fill="#000" filter="url(#s)" xlink:href="#t"/><rect stroke="#B8B8B8" stroke-width=".5" stroke-linejoin="square" fill="#FFF" fill-rule="evenodd" x=".5" y=".487" width="28.91" height="50.967" rx="3"/></g><circle fill="#B8B8B8" cx="14.955" cy="48.641" r="1.225"/><rect stroke="#B8B8B8" stroke-width=".5" fill="#F5F5F5" x="3.564" y="4.164" width="22.783" height="41.776" rx="1.5"/><g fill="#3D3D3D"><path d="M18.326 26.667l-.808-.386a.332.332 0 0 0-.252 0l-2.312 1.104a.332.332 0 0 1-.251 0L12.39 26.28a.332.332 0 0 0-.251 0l-.808.386c-.07.033-.07.087 0 .12l3.372 1.61c.069.032.182.032.251 0l3.372-1.61c.07-.033.07-.087 0-.12"/><path d="M18.326 24.685l-.808-.385a.332.332 0 0 0-.252 0l-2.312 1.103a.332.332 0 0 1-.251 0L12.39 24.3a.332.332 0 0 0-.251 0l-.808.385c-.07.033-.07.087 0 .12l3.372 1.61c.069.032.182.032.251 0l3.372-1.61c.07-.033.07-.087 0-.12"/><path d="M11.331 22.823l3.372 1.61c.069.032.182.032.251 0l3.372-1.61c.07-.033.07-.087 0-.12l-3.372-1.609a.332.332 0 0 0-.251 0l-3.372 1.61c-.07.032-.07.086 0 .12"/></g></g></g></svg>